
<svg width="586" height="321" viewBox="0 0 586 321" fill="none" xmlns="http://www.w3.org/2000/svg">
<path d="M11.5594 85.6076C20.1666 69.0756 33.1238 55.2072 49.0336 45.498C64.9434 35.7889 83.2021 30.6075 101.84 30.5128C103.206 30.5128 104.541 30.5128 105.875 30.5913C88.4316 48.8201 79.0895 71.1156 77.7235 105.202C77.4252 112.394 77.7235 147.454 77.7235 186.848C77.7235 245.303 77.7235 313.288 77.7235 313.288H0.348911V175.276C0.348911 161.035 -0.436139 146.418 0.348911 132.035C1.22817 115.989 4.02295 100.241 11.5594 85.6076ZM177.77 0.00570518C164.283 -0.140157 150.913 2.51235 138.503 7.79569C126.093 13.079 114.914 20.8784 105.671 30.7012C163.325 30.7012 200.647 69.9537 202.735 132.475C203.206 146.81 203.363 223.541 203.363 223.541V313.225H280.722V192.013C280.722 155.367 281.02 123.635 278.461 101.795C271.333 40.8283 234.027 0.00570518 177.77 0.00570518ZM585.651 188.669C586.436 174.287 585.651 159.685 585.651 145.444V7.43228H508.308C508.308 7.43228 508.308 75.4176 508.308 133.857C508.308 173.204 508.606 208.28 508.308 215.502C506.942 249.605 497.6 271.884 480.156 290.113C481.491 290.113 482.841 290.207 484.191 290.207C502.829 290.113 521.088 284.931 536.998 275.222C552.908 265.513 565.865 251.645 574.472 235.113C582.008 220.432 584.803 204.7 585.651 188.669ZM408.23 320.683C421.717 320.829 435.087 318.176 447.497 312.893C459.907 307.61 471.086 299.81 480.329 289.988C422.675 289.988 385.353 250.735 383.265 188.214C382.794 173.863 382.59 138.269 382.59 97.0379V7.35378L305.278 7.43228V128.754C305.278 165.4 304.98 197.132 307.539 218.972C314.699 279.939 352.004 320.683 408.23 320.683Z" fill="white"/>
</svg>
